<?xml version="1.0" standalone="no"?>
<!DOCTYPE svg PUBLIC "-//W3C//DTD SVG 20010904//EN"
 "http://www.w3.org/TR/2001/REC-SVG-20010904/DTD/svg10.dtd">
<svg version="1.0" xmlns="http://www.w3.org/2000/svg"
 width="1024.000000pt" height="1024.000000pt" viewBox="0 0 1024.000000 1024.000000"
 preserveAspectRatio="xMidYMid meet">

<g transform="translate(0.000000,1024.000000) scale(0.100000,-0.100000)"
fill="#000000" stroke="none">
<path d="M5120 8560 c-479 -32 -889 -169 -1291 -432 -147 -96 -327 -254 -472
-415 -113 -125 -272 -379 -366 -583 -80 -175 -168 -477 -196 -674 -20 -140
-20 -534 0 -675 19 -133 66 -323 112 -455 72 -208 222 -479 365 -661 70 -89
279 -305 362 -374 282 -236 665 -426 1019 -505 180 -41 305 -56 522 -63 237
-7 345 3 565 54 214 49 297 78 506 175 262 123 438 244 642 442 177 172 256
271 410 511 135 210 253 550 297 852 48 331 34 681 -40 973 -81 322 -268 699
-458 924 -137 163 -313 327 -500 469 -76 58 -191 129 -134 84 20 -17 23 -47 3
-47 -8 0 -16 -13 -18 -31 -4 -27 0 -34 38 -60 23 -16 45 -29 49 -29 20 0 136
-93 238 -190 153 -146 246 -259 363 -438 145 -222 224 -392 289 -622 90 -321
111 -771 50 -1080 -21 -103 -56 -251 -66 -275 -5 -11 -24 -65 -43 -120 -65
-190 -180 -403 -297 -549 -35 -43 -84 -105 -109 -137 -50 -65 -229 -235 -330
-315 -152 -119 -284 -198 -460 -276 -286 -126 -481 -176 -783 -200 -176 -14
-476 1 -627 31 -297 60 -670 213 -860 354 -31 23 -95 69 -141 102 -95 68 -277
247 -374 368 -156 194 -301 438 -371 624 -38 101 -101 353 -120 483 -24 159
-24 538 -1 665 38 208 76 373 96 418 11 27 21 57 21 67 0 43 25 120 46 146 13
14 26 42 30 60 3 19 10 34 15 34 5 0 9 9 9 20 0 11 4 20 9 20 7 0 35 50 64
117 5 11 22 35 38 53 16 17 29 35 29 41 0 5 5 9 10 9 6 0 10 5 10 11 0 6 11
20 24 30 14 11 32 40 42 65 10 26 20 40 24 34 5 -7 16 3 31 27 34 57 241 256
333 320 45 32 99 71 121 89 52 41 260 167 305 184 19 7 62 28 95 46 111 60
632 204 693 192 10 -2 -61 -30 -155 -62 -219 -74 -280 -103 -448 -217 -189
-128 -237 -185 -370 -434 -20 -38 -47 -84 -60 -100 -12 -17 -51 -87 -85 -155
-101 -202 -142 -396 -143 -675 0 -126 5 -181 21 -260 85 -398 329 -793 631
-1021 157 -118 418 -228 656 -276 215 -43 554 -17 746 57 47 19 98 37 114 41
49 12 238 110 312 161 129 90 229 171 281 227 118 130 238 312 306 465 40 89
93 365 101 521 13 246 -39 675 -100 833 -8 20 -15 50 -15 65 0 50 -140 227
-247 314 -142 114 -313 223 -365 233 -17 4 -19 0 -13 -23 8 -34 30 -58 131
-143 148 -123 257 -233 301 -302 53 -83 110 -217 134 -317 9 -41 29 -106 42
-145 21 -58 27 -102 36 -259 6 -103 9 -191 7 -195 -2 -3 -7 -53 -10 -111 -4
-58 -11 -109 -17 -114 -5 -6 -9 -19 -9 -30 0 -40 -51 -226 -81 -297 -70 -163
-170 -319 -278 -432 -91 -96 -292 -243 -416 -305 -48 -24 -287 -105 -370 -125
-242 -60 -555 -44 -792 39 -113 40 -290 134 -391 206 -237 170 -427 437 -526
739 -66 202 -79 271 -79 444 -1 223 37 437 107 603 26 61 103 205 139 260 12
18 38 57 57 86 53 80 212 253 288 311 129 99 234 154 417 218 72 25 166 59
210 76 44 16 145 44 225 62 136 29 154 31 285 26 153 -6 235 -22 341 -65 39
-16 110 -44 160 -62 49 -18 151 -63 226 -99 116 -57 140 -65 158 -56 11 6 18
14 14 18 -4 4 -8 20 -9 36 -2 27 0 29 19 20 21 -10 21 -10 1 6 -72 59 -393
192 -604 250 -248 68 -460 90 -701 75z"/>
<path d="M3920 7899 c-116 -68 -274 -226 -374 -373 -224 -330 -318 -690 -303
-1161 6 -209 27 -329 88 -522 121 -378 310 -664 597 -903 138 -116 224 -172
394 -259 177 -89 322 -140 498 -175 176 -35 200 -38 340 -46 l125 -7 -105 -3
-105 -3 75 -7 c75 -8 356 3 418 16 18 4 35 11 39 17 4 6 -2 8 -17 4 -13 -3
-19 -2 -14 3 5 5 23 11 39 14 21 5 24 4 11 -2 -44 -19 6 -20 95 -2 99 20 211
58 267 91 18 10 38 19 43 19 16 0 130 54 175 83 22 13 44 25 49 26 6 1 17 8
25 14 8 7 32 21 53 31 21 11 48 29 61 40 12 12 35 28 52 35 54 28 139 96 247
201 140 136 154 154 137 186 -8 13 -16 24 -19 24 -3 0 -18 -19 -33 -43 -15
-23 -47 -62 -72 -87 -24 -25 -42 -49 -38 -54 3 -5 0 -6 -6 -2 -6 3 -14 1 -19
-6 -4 -7 -26 -26 -48 -43 -22 -16 -42 -32 -45 -35 -9 -11 -70 -51 -70 -46 0 3
45 44 101 92 109 94 178 174 283 327 72 104 95 128 46 48 -17 -26 -30 -51 -30
-55 0 -5 -30 -43 -57 -71 -10 -10 -8 -16 10 -28 21 -14 24 -12 57 37 19 28 38
56 43 61 31 41 67 103 67 117 0 9 5 20 10 23 6 3 10 12 10 18 0 7 -4 6 -11 -3
-9 -12 -10 -12 -5 3 3 10 6 21 6 23 0 3 4 3 9 0 5 -3 12 14 15 39 5 33 11 43
22 38 10 -4 14 2 14 21 0 14 4 26 8 26 5 0 16 18 25 40 8 22 14 40 11 40 -10
0 -42 -39 -36 -44 3 -3 0 -6 -6 -6 -7 0 -26 -30 -42 -67 -17 -38 -35 -76 -40
-86 -6 -10 -8 -22 -5 -27 3 -6 0 -7 -8 -4 -12 4 -9 18 17 72 91 189 160 431
187 652 13 109 12 584 -1 704 -23 206 -38 266 -92 374 -28 56 -57 102 -64 102
-7 0 -19 2 -27 6 -18 6 -14 -55 13 -206 11 -58 22 -118 25 -135 2 -16 9 -68
14 -115 29 -248 33 -339 28 -526 -5 -170 -10 -221 -36 -348 -56 -266 -109
-410 -221 -600 -116 -195 -326 -419 -511 -546 -123 -85 -398 -221 -531 -264
-232 -74 -471 -105 -678 -86 -668 59 -1273 460 -1555 1030 -82 166 -160 418
-186 606 -22 151 -17 447 9 598 28 160 67 317 92 365 10 20 23 56 30 81 6 25
20 54 30 65 24 25 50 87 50 117 0 15 11 29 30 40 17 10 38 31 48 49 33 60 137
185 255 306 66 68 116 123 111 122 -5 0 -47 -23 -94 -50z m2404 -3104 c-4 -8
-13 -15 -22 -15 -13 0 -12 3 4 15 24 18 25 18 18 0z m-164 -90 c0 -2 -13 -11
-30 -20 -38 -19 -40 -11 -2 9 31 17 32 18 32 11z m-178 -92 c-6 -2 -9 -10 -6
-15 4 -7 2 -8 -5 -4 -13 9 -5 26 12 25 9 0 8 -2 -1 -6z m-107 -43 c-3 -5 -13
-10 -21 -10 -8 0 -12 -4 -9 -10 4 -6 -1 -7 -11 -3 -14 5 -13 8 7 19 29 16 42
18 34 4z m-77 -32 c-3 -7 -16 -14 -29 -15 -13 0 -35 -4 -49 -9 -15 -4 -22 -3
-17 2 8 8 68 30 90 33 5 1 7 -5 5 -11z m-128 -32 c0 -3 -4 -8 -10 -11 -5 -3
-10 -1 -10 4 0 6 5 11 10 11 6 0 10 -2 10 -4z"/>
<path d="M5222 7604 c-13 -9 -49 -55 -81 -102 -31 -48 -97 -145 -145 -216 -90
-131 -161 -262 -192 -351 -26 -75 -30 -232 -9 -311 44 -163 184 -293 354 -329
124 -26 234 -14 331 35 57 29 160 129 199 194 62 104 79 264 41 387 -23 77
-118 245 -220 391 -41 59 -100 148 -130 199 -33 53 -66 96 -82 105 -34 18 -38
18 -66 -2z m48 -163 c0 -5 57 -91 127 -192 142 -206 214 -337 234 -423 16 -71
2 -150 -42 -243 -126 -266 -530 -268 -663 -3 -64 128 -58 254 18 416 43 91
134 234 197 310 19 22 50 64 69 92 31 46 60 67 60 43z"/>
<path d="M7173 5990 c0 -30 2 -43 4 -27 2 15 2 39 0 55 -2 15 -4 2 -4 -28z"/>
<path d="M8793 4342 c-7 -4 -17 -30 -23 -57 -14 -62 -23 -73 -88 -102 -64 -28
-66 -49 -7 -70 51 -17 75 -42 95 -95 22 -60 42 -60 68 1 18 44 28 54 76 78 47
23 56 31 56 54 0 21 -6 28 -28 32 -37 8 -89 57 -96 90 -3 15 -8 38 -11 52 -5
25 -20 31 -42 17z"/>
<path d="M6424 3391 c-60 -15 -73 -43 -29 -63 14 -6 28 -22 32 -36 3 -13 2
-122 -3 -241 -4 -119 -7 -246 -5 -283 2 -52 -1 -68 -11 -68 -8 0 -22 -6 -32
-13 -15 -11 -17 -17 -7 -35 11 -20 20 -22 104 -22 99 0 117 7 117 46 0 18 -6
23 -32 26 l-33 3 0 250 c0 138 2 293 5 345 l5 95 -40 2 c-22 1 -54 -2 -71 -6z"/>
<path d="M4343 3235 c-20 -14 -34 -51 -38 -100 -1 -11 -5 -39 -9 -62 -7 -39
-6 -43 13 -43 36 0 43 -32 36 -169 -8 -142 2 -185 51 -217 33 -22 117 -21 151
1 28 18 32 75 7 99 -20 20 -18 20 -64 -6 -38 -22 -40 -22 -57 -5 -15 15 -19
39 -21 147 l-4 130 32 0 c17 0 44 7 60 15 59 30 26 82 -58 92 l-51 6 -3 60
c-3 65 -12 75 -45 52z"/>
<path d="M2180 3064 l-45 -45 -5 33 c-4 29 -9 33 -47 40 -49 8 -92 -2 -107
-24 -13 -22 9 -48 40 -48 l24 0 0 -156 0 -155 -30 -10 c-18 -7 -30 -18 -30
-29 0 -33 24 -41 111 -38 73 3 84 5 87 22 3 12 -5 26 -19 37 -23 17 -24 24
-24 128 0 103 2 111 25 136 41 43 87 68 107 56 52 -27 58 -46 61 -186 4 -131
4 -134 -17 -128 -16 4 -23 -1 -31 -22 -6 -15 -8 -31 -4 -36 3 -5 46 -9 95 -9
68 0 91 3 95 14 7 19 -13 56 -30 56 -16 0 -32 169 -21 219 7 34 66 91 95 91
64 0 80 -38 80 -189 0 -116 -1 -120 -22 -123 -18 -2 -23 -10 -23 -33 l0 -30
90 0 90 0 3 27 c2 20 -2 28 -20 33 -13 4 -26 12 -29 17 -3 5 -4 64 -1 132 5
142 -3 177 -52 225 -26 25 -46 35 -81 38 -44 5 -48 4 -88 -38 l-42 -44 -41 42
c-38 40 -44 43 -95 43 -52 0 -57 -2 -99 -46z"/>
<path d="M3584 3103 c-18 -2 -50 -20 -72 -39 l-41 -34 -3 27 c-3 26 -6 28 -55
31 -64 4 -93 -10 -93 -43 0 -20 5 -25 25 -25 14 0 25 -6 26 -12 0 -7 0 -78 -1
-158 -1 -151 -4 -160 -47 -160 -15 0 -23 -6 -23 -18 0 -34 21 -42 117 -42 93
0 93 0 93 25 0 17 -8 29 -25 37 -24 11 -25 14 -25 115 0 67 5 116 14 138 31
72 118 91 169 35 26 -30 27 -33 27 -154 0 -115 -1 -124 -20 -129 -27 -7 -36
-35 -17 -54 10 -10 37 -16 88 -17 72 -1 73 0 83 27 10 28 4 39 -29 50 -5 2 -9
64 -10 148 0 133 -2 147 -23 182 -34 54 -89 78 -158 70z"/>
<path d="M3984 3096 c-17 -8 -44 -30 -59 -50 -24 -31 -27 -43 -23 -87 6 -63
33 -92 136 -144 59 -30 72 -41 72 -61 0 -29 -27 -44 -80 -44 -33 0 -48 6 -72
30 -17 17 -31 30 -32 28 -1 -2 -8 -22 -16 -45 -11 -36 -11 -45 1 -59 34 -42
130 -57 192 -30 57 24 90 69 95 128 5 67 -16 97 -102 139 -71 36 -95 55 -107
86 -21 56 38 73 97 28 18 -14 44 -25 58 -25 22 0 26 5 26 29 0 16 -3 37 -6 46
-16 41 -117 58 -180 31z"/>
<path d="M4825 3088 c-41 -15 -60 -17 -63 -9 -5 14 -81 15 -117 1 -37 -14 -27
-32 27 -50 53 -17 52 -14 64 -213 l7 -107 -32 -11 c-23 -8 -30 -16 -27 -32 4
-26 27 -35 93 -36 102 -2 141 41 58 65 l-40 11 3 134 c4 146 12 174 59 185 19
5 38 1 64 -14 37 -22 66 -21 81 2 13 19 9 64 -8 80 -22 22 -96 20 -169 -6z"/>
<path d="M5850 3097 c-80 -42 -96 -63 -78 -102 13 -29 30 -32 49 -9 33 40 107
56 152 33 38 -20 67 -52 67 -74 0 -21 -6 -23 -72 -27 -82 -5 -160 -39 -215
-91 -40 -37 -43 -72 -11 -129 33 -57 80 -83 155 -83 60 0 64 1 108 45 l45 44
0 -31 c0 -45 20 -57 82 -49 84 11 105 48 45 76 l-32 15 -5 153 -5 154 -30 25
c-71 59 -192 83 -255 50z m185 -248 c13 -20 -6 -79 -36 -109 -38 -38 -100 -42
-135 -9 -48 45 34 128 128 129 20 0 40 -5 43 -11z"/>
<path d="M7525 3095 c-16 -9 -39 -25 -51 -36 -27 -25 -30 -24 -29 9 0 27 0 27
-69 27 -68 0 -70 -1 -77 -28 -7 -24 -4 -29 24 -40 l31 -13 2 -148 c2 -130 1
-148 -14 -152 -36 -11 -47 -23 -44 -45 4 -34 18 -39 109 -39 73 0 82 2 88 20
9 28 -3 58 -26 65 -17 6 -19 16 -19 116 0 121 6 141 50 164 57 30 109 16 136
-37 14 -27 16 -50 10 -130 -5 -86 -9 -100 -32 -123 -15 -16 -24 -34 -22 -48 3
-20 9 -22 86 -25 91 -3 112 5 112 43 0 16 -8 25 -25 29 l-25 6 0 136 c0 154
-10 188 -66 231 -43 32 -108 40 -149 18z"/>
<path d="M8005 3096 c-61 -28 -98 -83 -75 -111 18 -22 35 -18 68 15 23 22 40
30 67 30 61 0 125 -46 125 -91 0 -13 -12 -16 -73 -15 -61 0 -80 -4 -118 -26
-25 -15 -61 -41 -79 -58 -30 -28 -32 -34 -28 -84 12 -140 152 -192 261 -96
l45 40 6 -25 c15 -61 72 -82 120 -44 31 25 36 69 7 69 -36 0 -43 24 -42 148 2
125 -6 161 -42 201 -51 55 -171 78 -242 47z m186 -255 c5 -71 -42 -121 -117
-121 -70 0 -96 53 -50 103 25 27 45 34 106 39 46 4 60 -1 61 -21z"/>
<path d="M2945 3081 c-124 -57 -168 -191 -104 -316 39 -77 60 -99 122 -125 68
-30 119 -23 201 26 l65 39 -28 29 -29 29 -30 -22 c-66 -47 -163 -17 -209 64
-31 55 -30 65 10 58 33 -5 284 14 298 23 11 7 -18 83 -47 126 -40 58 -94 88
-156 88 -30 0 -70 -8 -93 -19z m135 -68 c26 -15 56 -60 47 -69 -2 -2 -52 -7
-111 -11 l-108 -6 16 31 c34 67 98 89 156 55z"/>
<path d="M5065 3080 c-9 -27 -1 -36 36 -44 l32 -6 -6 -123 c-7 -138 0 -181 40
-228 34 -40 79 -59 139 -59 43 0 51 4 91 45 40 42 43 44 43 21 0 -50 8 -56 74
-56 53 0 66 4 85 24 28 29 20 46 -20 46 l-29 0 -2 98 c-1 53 -1 143 0 200 l1
104 -77 -5 c-75 -4 -77 -5 -80 -32 -3 -19 3 -32 17 -42 19 -13 21 -24 21 -129
l0 -114 -47 -30 c-59 -38 -85 -38 -116 0 -35 42 -40 76 -32 222 l7 128 -85 0
c-77 0 -86 -2 -92 -20z"/>
<path d="M6694 3091 c-2 -2 -4 -17 -4 -32 0 -21 5 -28 22 -31 22 -3 23 -6 18
-78 -16 -248 26 -330 170 -330 58 0 64 2 93 35 17 19 34 35 38 35 4 0 9 -15
11 -32 3 -33 3 -33 59 -33 62 0 89 15 89 50 0 16 -9 26 -31 36 l-32 13 5 188
5 188 -63 0 c-59 0 -64 -2 -70 -24 -7 -29 1 -46 23 -46 14 0 15 -14 9 -112 -9
-139 -23 -167 -99 -199 -25 -10 -31 -9 -53 12 -49 45 -54 68 -54 224 l0 146
-66 -3 c-36 -2 -67 -5 -70 -7z"/>
<path d="M6087 2244 c-4 -4 -7 -56 -7 -116 l0 -108 59 0 c63 0 75 7 65 35 -6
14 -15 16 -45 11 l-38 -6 -3 92 c-3 84 -12 111 -31 92z"/>
<path d="M3942 2220 c-18 -11 -40 -36 -49 -56 -17 -34 -17 -37 6 -79 22 -41
68 -75 103 -75 24 0 58 30 58 52 0 15 -4 18 -17 13 -44 -19 -69 -16 -96 9 -33
30 -34 58 -5 86 24 22 68 26 99 10 30 -17 39 18 10 42 -30 23 -68 23 -109 -2z"/>
<path d="M4206 2218 c-19 -28 -56 -145 -56 -175 0 -14 6 -23 15 -23 8 0 15 9
15 20 0 17 7 20 50 20 44 0 50 -3 50 -20 0 -24 26 -38 42 -22 8 8 -1 37 -32
107 -51 113 -63 126 -84 93z m31 -109 c-27 -6 -33 11 -16 43 l12 23 13 -30
c11 -28 10 -30 -9 -36z"/>
<path d="M5306 2233 c-3 -3 -6 -50 -6 -103 0 -69 4 -101 13 -109 19 -15 27 -4
27 41 l0 38 45 0 45 0 0 -46 c0 -40 2 -45 15 -34 22 19 22 205 -1 214 -9 3
-17 6 -19 6 -2 0 -3 -19 -2 -42 l2 -43 -47 -3 -48 -3 0 40 c0 38 -10 57 -24
44z"/>
<path d="M5591 2233 c-24 -5 -24 -5 -17 -106 3 -56 10 -104 14 -108 11 -10
117 5 115 16 -2 6 -21 11 -43 13 -36 3 -41 6 -38 25 2 14 15 27 36 36 39 18
41 29 5 37 -48 10 -53 13 -53 29 0 10 10 15 34 15 47 0 66 9 66 31 0 16 -7 19
-47 18 -27 -1 -59 -4 -72 -6z"/>
<path d="M5837 2147 c-40 -99 -47 -140 -22 -131 8 3 17 15 20 25 6 17 14 20
53 17 38 -2 49 -8 57 -26 14 -31 41 -24 37 11 -6 53 -80 197 -101 197 -3 0
-23 -42 -44 -93z m69 -3 c6 -24 -6 -43 -28 -44 -10 0 -10 32 -2 54 9 24 23 19
30 -10z"/>
<path d="M6260 2229 c0 -8 -3 -25 -7 -39 -6 -22 -5 -23 10 -12 9 8 26 12 39
10 22 -3 23 -8 26 -85 3 -76 5 -83 23 -83 19 0 20 5 17 85 l-3 85 25 -2 c19
-2 26 2 28 20 3 21 0 22 -61 22 -36 0 -72 3 -81 6 -10 4 -16 1 -16 -7z"/>
<path d="M6668 2198 l-3 -43 -49 -3 -49 -3 7 40 c6 39 5 41 -19 41 l-25 0 0
-110 c0 -103 1 -110 20 -110 17 0 20 7 20 45 l0 45 45 0 45 0 0 -40 c0 -22 2
-40 4 -40 2 0 11 -3 20 -6 14 -5 16 8 16 110 0 94 -3 116 -14 116 -10 0 -16
-14 -18 -42z"/>
<path d="M4420 2125 c0 -83 3 -105 14 -105 15 0 26 21 26 51 0 28 16 23 45
-15 14 -19 32 -37 40 -40 24 -9 26 10 4 39 -18 22 -20 30 -10 48 11 22 16 49
13 77 -3 23 -55 50 -96 50 l-36 0 0 -105z m88 38 c-2 -22 -9 -29 -30 -31 -20
-2 -28 1 -28 12 0 30 13 46 37 46 21 0 24 -4 21 -27z"/>
<path d="M4660 2126 l0 -103 56 -7 c59 -7 74 -3 74 19 0 9 -14 15 -42 17 -38
3 -43 6 -46 30 -3 25 0 27 40 30 55 4 56 22 1 26 -38 3 -43 6 -43 27 0 21 6
25 45 31 28 4 45 11 45 20 0 11 -16 14 -65 14 l-65 0 0 -104z"/>
<path d="M4884 2026 c-6 -35 0 -56 15 -56 11 0 36 38 45 68 7 19 4 22 -23 22
-26 0 -31 -4 -37 -34z"/>
</g>
</svg>
